<?xml version="1.0" encoding="UTF-8" standalone="no"?>
<svg
   xmlns:dc="http://purl.org/dc/elements/1.1/"
   xmlns:cc="http://creativecommons.org/ns#"
   xmlns:rdf="http://www.w3.org/1999/02/22-rdf-syntax-ns#"
   xmlns:svg="http://www.w3.org/2000/svg"
   xmlns="http://www.w3.org/2000/svg"
   viewBox="0 0 2829.3333 2829.3333"
   height="2829.3333"
   width="2829.3333"
   xml:space="preserve"
   id="svg2"
   version="1.1"><metadata
     id="metadata8"><rdf:RDF><cc:Work
         rdf:about=""><dc:format>image/svg+xml</dc:format><dc:type
           rdf:resource="http://purl.org/dc/dcmitype/StillImage" /></cc:Work></rdf:RDF></metadata><defs
     id="defs6" /><g
     transform="matrix(1.3333333,0,0,-1.3333333,0,2829.3333)"
     id="g10"><g
       transform="scale(0.1)"
       id="g12"><g
         transform="scale(1.1717)"
         id="g14"><path
           id="path16"
           style="fill:#4cc4cb;fill-opacity:1;fill-rule:nonzero;stroke:none"
           d="m 16294.2,9057.9 c 0,-116.75 -3,-233.42 -8.4,-348.64 -9.5,-202.87 -27.2,-403.6 -53.4,-601.95 -17.3,-130.58 -37.6,-260.13 -61.9,-388.75 v -0.51 c -628.7,-3359.41 -3576,-5901.71 -7117.89,-5901.71 -3999.9,0 -7242.08,3242.14 -7242.08,7241.56 0,1550.6 487.18,2987.5 1317.15,4165.6 355.13,504 772.56,960.6 1241.49,1358.7 8.89,7.4 17.78,15.3 26.67,22.3 44.03,37 88.06,73.7 133.08,109.8 171.62,137 349.17,266.6 533.17,387.7 244.34,162.3 499.05,309.2 762.68,440.8 117.71,58.8 236.93,114.2 358.14,166.1 879.89,380.4 1850.29,591.1 2869.7,591.1 h 5.89 c 245.37,0 487.75,-12.3 726.64,-36.6 0.51,0 0.51,0 0.51,0 600.95,-60.3 1180.05,-194.4 1728.65,-392.7 1181.2,-426.9 2219.3,-1152 3024,-2084.3 v -0.5 c 96,-111.3 188,-224.5 276.6,-341.3 41.4,-53.9 82,-108.8 121.6,-164.2 788.4,-1097 1278,-2423.6 1348.8,-3859.95 2.5,-54.87 4.9,-109.75 5.9,-165.23 2,-65.8 3,-131.52 3,-197.32" /></g><g
         transform="scale(1.05771)"
         id="g18"><path
           id="path20"
           style="fill:#c4e230;fill-opacity:1;fill-rule:nonzero;stroke:none"
           d="m 10341,6148.3 c -301.8,-109.01 -425.69,-14.28 -550.11,-356.72 -67.88,-187.39 -132.55,-336.39 -296.87,-456.46 -190.72,-139.64 -311.77,-337.43 -437.28,-533.04 -55.88,-87.64 -115.61,-174.24 -191.75,-245.43 -30.68,-29.12 -64.14,-54.84 -97.56,-81.12 -34.51,-27.42 -94.2,-89.92 -141.88,-89.35 21.37,-78.37 58.08,-168.76 -0.58,-239.95 -64.1,-78.38 -186.79,-65.8 -249.28,-145.79 -162.72,-207.61 212.58,-236.17 322.17,-266.8 163.26,-46.61 29.05,-201.66 -76.73,-215.84 3.33,-93.23 45.5,-185.78 13.72,-276.73 -41.62,-119.41 -170.95,-137 -179.71,-269.55 -8.24,-130.47 184.1,-358.89 258.09,-457.5 8.74,-11.06 -105.77,-105.23 -121.1,-112.32 -45.49,-21.37 -84.38,-20.89 -130.43,-1.7 -108.5,46.61 -186.27,182.47 -245.45,277.77 -155.06,247.71 -262.46,521.13 -357.8,796.16 -126.04,364.37 -142.46,737.44 -176.42,1117.23 -29.6,335.81 -23.02,641.57 21.37,976.35 33.42,252.62 98.07,667.29 -109.05,867.92 -106.82,102.48 -272.85,118.27 -354.47,250.91 -135.35,218.59 -82.74,492.01 -286.56,679.4 -117.81,108.54 -109.57,207.62 -60.28,352.84 22.47,66.84 45.49,133.11 48.77,203.83 2.2,52.66 -9.88,107.97 3.29,159.5 32.33,125.46 183.51,153.35 278.33,215.28 66.83,43.3 93.15,129.33 100.8,204.97 6.6,61.36 17,178.59 -44.36,217.45 -8.79,5.48 -18.61,8.79 -30.14,9.36 -69.56,5.48 -143.01,-1.61 -213.13,-1.14 -49.87,0 -106.86,-8.22 -155.6,0 -352.32,58.72 -316.13,449.28 -708.47,509.6 -313.93,48.21 -522.69,101.92 -825.69,199.96 -130.98,42.26 -327.7,-2.74 -440.52,45.47 -186.84,79.42 -109.06,109.01 -136.96,310.67 -48.78,345.77 -43.87,1597.17 -627.91,1547.27 -142.48,-12 -44.96,-392.2 98.02,-787.9 175.93,-485.9 -108.46,-551.7 -201.61,-164.3 -70.67,293.1 -81.65,515 -191.75,800.5 -117.8,304.6 -33.42,588.4 -43.31,903.5 -10.39,312.3 4.39,623.5 -3.82,933.6 -7.67,294.3 -173.71,540.8 -201.65,832.9 -28.45,298 -15.33,552.2 -132.58,789.5 393.39,558.3 855.82,1064.1 1375.27,1505.1 36.16,-42.2 71.22,-85.4 105.18,-129.3 -34.5,44.4 -60.82,98.7 -75.62,154 48.77,41 97.55,81.6 147.42,121.6 13.13,-25.2 24.12,-49.8 34.51,-67.4 83.29,-139.1 225.72,-255.8 358.34,-346.8 136.95,-94.2 297.49,-161.1 466.26,-155.6 -75.09,38.9 -326.56,-11 -252.07,217.5 190.15,-102.4 358.34,-14.2 546.85,-65.2 213.68,-57.5 309.02,-225.7 561.07,-205.4 221.36,17.5 397.75,192.3 619.67,104 226.3,-89.8 162.2,-212 436.67,-137 204.96,55.4 218.1,192.4 282.75,-64.1 54.25,-216.9 -68.48,-304 -209.86,-417.5 -162.17,-129.8 -272.86,-161.6 -463.51,-206.5 -249.88,-59.7 -232.33,-66.9 -369.29,-289.3 -54.8,-88.8 -110.14,-179.7 -153.45,-274.5 -53.66,-117.8 -106.82,-291.5 -43.81,-415.9 36.19,-71.2 109.01,-114.5 176.43,-151.8 65.74,-36.1 157.79,-44.9 201.6,-112.8 34.52,-53.7 6.6,-114.6 -0.5,-172.6 -7.15,-55.3 -5.48,-113.4 -3.87,-169.3 2.78,-88.2 16.99,-203.9 95.88,-258.6 264.65,-181.4 201.64,202.7 283.83,302.4 106.83,129.3 235.61,-18.1 359.99,94.3 94.23,85.4 52.06,399.9 68.48,523.8 29.58,226.8 235.6,817.4 452.02,358.3 75.08,-160.6 -37.25,-300.8 159.98,-401.6 138.64,-71.3 347.43,65.7 475.63,-40 151.19,-124.4 12.05,-231.8 13.14,-374.8 1.09,-184.6 5.46,-139.2 141.92,-267.9 58.58,-55.9 112.87,-125.5 159.96,-190.7 67.43,-92.6 155.07,-252 54.29,-352.8 -71.27,-71.9 -183.56,-64.2 -273.43,-45 -154.5,31.8 -277.27,112.3 -415.87,183 -110.69,56.4 -283.84,131.5 -384.64,15.9 -68.48,-78.9 -42.77,-199.4 33.41,-263 113.4,-94.8 260.79,-54.2 393.95,-50.4 129.3,3.3 277.78,-10.4 370.96,-110.7 88.18,-94.3 80.56,-253.7 -3.32,-351.8 -41.62,-48.7 -100.8,-86 -163.26,-100.8 -226.27,-51.5 -431.23,133.2 -656.92,107.4 -90.44,-9.8 -117.84,-95.3 -127.14,-173.7 -9.86,-81.6 -42.73,-123.8 -129.85,-109 -74.53,13.1 -154.54,34 -230.72,15.3 -105.18,-26.3 -147.35,-133.6 -174.2,-228.4 -67.93,-238.4 -73.45,-470.7 -311.75,-626.8 -225.22,-147.4 -318.91,-54.3 -294.78,-386.3 8.23,-114.6 53.69,-618.1 -198.91,-345.3 -153.96,166.1 121.63,492.1 -255.31,502 -249.33,7.1 -187.41,-219.8 -432.88,-174.8 -216.38,40.6 -375.85,244.4 -537.5,-85.4 -41.08,-84 -21.9,-206.6 -55.89,-299.2 -37.8,-101.9 -150.68,-177.5 -136.41,-298.05 8.2,-66.37 28.48,-151.27 69.57,-205.54 151.76,-199.96 505.18,72.89 645.46,158.93 58.63,36.21 146.84,127.66 221.89,101.35 124.92,-43.87 0.55,-210.46 -48.74,-266.33 -89.9,-101.26 -259.73,-217.45 -118.35,-354.45 44.94,-43.87 106.82,-66.27 168.18,-71.76 113.98,-9.92 227.95,17.49 342.47,9.27 64.65,-4.35 180.26,-26.29 130.94,-110.62 -53.12,-91.52 -262.42,-192.87 -124.93,-316.16 101.91,-90.95 143.02,50.4 238.35,43.31 27.4,-2.27 54.8,-9.93 80.01,-19.76 38.9,-14.84 67.93,-45.48 112.3,-41.13 36.7,3.88 66.84,26.85 87.12,57.01 23.57,34.51 31.23,78.29 54.25,114.02 33.96,52 83.84,94.17 138.63,123.19 80.53,42.74 173.12,46.04 261.88,47.65 24.71,0 71.81,12.67 90.95,-8.13 22.48,-24.11 -6.56,-91.52 -16.41,-116.76 -13.72,-35.64 -37.25,-67.41 -49.83,-103.53 -10.99,-32.33 -19.78,-71.75 5.98,-99.74 29.04,-31.77 73.44,-18.62 101.93,6.05 21.89,19.67 38.35,45.48 51.48,71.76 27.99,53.13 32.87,125.46 102.48,140.78 101.89,22.5 152.29,-153.92 204.38,-207.06 52.56,-54.83 120.53,-95.39 184.63,-135.38 155.61,-98.04 340.25,-143.52 517.24,-186.82 340.82,-83.86 324.37,-222.46 529.77,-470.07 294.31,-354.55 1344.62,-65.24 1339.72,-734.8 -1.6,-219.15 -233.9,-375.34 -255.9,-610.85 -25.8,-281.08 110.7,-487.19 -209.9,-603.28" /></g><g
         transform="scale(1.17128)"
         id="g22"><path
           id="path24"
           style="fill:#c4e230;fill-opacity:1;fill-rule:nonzero;stroke:none"
           d="m 16300,9061.14 c 0,-116.79 -3,-233.5 -8.4,-348.76 -4.4,-2.48 -9.4,-4.95 -13.8,-7.94 -118.3,-72.23 -196,-195.43 -331.1,-246.4 -614.5,-229.58 -555.1,871.27 -1126.5,957.42 -9.4,-217.2 162.3,-349.88 260.7,-526.01 106.4,-190.47 215.7,-378.05 312.1,-573.39 108.5,-218.74 166.4,-315.21 424.1,-273.21 99,16.4 306.3,126.7 421.1,67.36 -17.3,-130.62 -37.6,-260.22 -61.9,-388.89 v -0.51 c -197.9,-202.85 -553.2,-392.39 -665.4,-464.62 -140.1,-90.58 -337.5,-159.83 -351.4,-351.33 -14.3,-193.89 184.6,-332.97 184.1,-540.26 -1,-299.85 -202.4,-201.41 -321.6,-408.7 -119.8,-207.3 159.8,-203.37 101.9,-433.46 -182.1,-38.08 -217.7,-254.76 -329,-380.02 -70.8,-78.63 -191.5,-133.01 -245.9,-219.67 -53,-84.09 -0.5,-178.1 -78.7,-256.3 -105.4,-105.36 -186.6,-27.15 -302.8,-51.91 -315.2,-66.77 -289,-150.44 -442.4,115.77 -69.2,120.21 -249.3,256.82 -117.7,394.36 -340.4,322.55 -458.1,918.31 -277.1,1353.73 129.2,309.75 102.9,261.68 -58.4,555.64 -100.9,183.56 -16.8,361.66 -227.6,486.39 -179.5,106.38 -433.4,54.38 -629.8,13.32 -258.4,-53.45 -431,-77.69 -697.2,41.06 -209.8,93.49 -281.1,303.35 -429,460.19 -238,252.29 -67.3,297.88 18.3,582.87 34.2,113.8 8.9,255.27 50,362.17 34.1,90.07 121.7,133.61 157.9,218.22 40.1,94 14.3,196.36 54.8,292.41 34.7,80.6 121.3,109.3 146,209.78 153.9,-10.91 197.4,148.91 322.2,204.83 104.3,46.52 281.5,27.7 398.8,55.9 143.4,35.12 187.5,70.32 293.3,169.22 89.1,82.6 122.3,239.5 287.6,138.5 -146.5,-391.84 563.5,-610.03 853.4,-587.76 80.7,319.56 286,90.04 533.4,81.15 189,-6.95 440.4,16.33 636.8,33.15 -59.4,120.24 -44.5,264.66 -87.1,388.86 -165.3,22.8 -253.8,-100.9 -415.6,-43.5 -108.9,39.1 -185.5,145.5 -264.2,222.2 -10.9,-32.2 -52,-66.4 -61.4,-112.9 -354.3,38.6 -191,242.5 -299.8,463.2 -60.9,123.2 -290.5,249.3 -419.1,294.8 -206.3,73.3 -407.2,10.9 -242,-212.7 119.8,-161.8 308.8,-158.8 392.9,-374.6 -200.9,28.7 -154.4,-248.8 -305.7,-285.4 76.7,234 -79.2,663.9 -361.8,731.2 -228.1,54.5 -372,-283.5 -473.5,-432.9 -157.8,-232 -360.2,-298.3 -627.3,-204.8 -170.8,59.8 -492.4,142.5 -344.4,397.8 131,227.1 630.3,44.5 859.9,50.4 33.1,312.7 -580.9,189.5 -230.5,527.5 88.5,85.6 228.5,196.9 334.4,277.6 87.1,65.8 251.4,142 355.8,163.2 167.7,34.2 255.8,-19.3 406.7,76.2 66.3,42.1 82.1,112.8 161.8,149 66.8,30.1 156.7,-15.4 233,24.7 147.4,78.2 131.1,214.7 228.6,332.5 96,116.3 250.4,112.3 333.9,234 -148.9,74.3 -417.5,159.4 -507,284 30.6,128.2 270.1,607.1 68.2,669.5 -298.4,92 -262.2,-511.1 -279.5,-632.4 -25.3,-174.1 -78.2,-568.5 -261.3,-630.8 -132.6,-45 -218.2,60.4 -330,96.5 -109.8,35.6 -231.6,10.4 -334,43 -354.3,113.8 -79.2,355.8 112.3,479.5 302.3,195.4 363.6,369.6 533.5,644.2 73.6,119.2 322.5,438.8 441.3,509.1 233.5,138.6 522.5,-94.5 752.5,-123.2 27.2,-3.4 75.2,-5.9 132.1,-9.9 v -0.5 c 96,-111.3 188,-224.6 276.7,-341.4 -150,-67.3 -501.3,-110.3 -621.1,-155.3 190.6,-127.7 410.7,-381 630.5,-185.6 60.7,53.9 68.7,116.8 112.2,176.6 788.7,-1097.4 1278.5,-2424.4 1349.3,-3861.28 -128.1,87.09 -192.9,267.7 -417.1,219.73 105.9,-93.54 186.1,-260.79 298.9,-336.44 49.9,-33.63 88,-45.59 124.1,-48.57 2.1,-65.83 3,-131.57 3,-197.4" /></g><g
         transform="scale(1.16906)"
         id="g26"><path
           id="path28"
           style="fill:#c4e230;fill-opacity:1;fill-rule:nonzero;stroke:none"
           d="m 11526.8,15721 c -35.1,-71.9 -131.9,-59.5 -164.5,-118 -42.2,-74.3 -82.8,-414.4 -78.4,-480.3 11,-178 112.6,-262.3 32.8,-445.2 -25.4,-57.5 -103.7,-81.8 -127,-146.2 -21.8,-60 2,-173.5 -3.5,-237.5 -191.3,-53 -30.7,-166.6 -106,-270.6 -68.4,-94.7 -348,-122.5 -455.6,-138.3 -160.1,-371.8 -702.38,-323.8 -897.24,-710.4 -74.42,-148.2 21.3,-512.6 -164.15,-583 -192.29,-73.4 -259.69,181.9 -319.23,296.4 -79.8,153.2 -215.13,308.4 -201.7,491.3 10.87,151.7 132.33,308.8 182.37,453.1 48.59,140.3 173.99,347.5 179.46,491.8 6.5,162.5 -116.93,379.2 -151.15,542.8 -98.71,468.4 -796.14,306.3 -648.46,895.3 161.66,12.4 348.05,-91.7 500.23,5.9 85.7,55.5 143.27,216.6 231.04,290.5 87.16,72.9 159.61,100.6 260.2,150.2 71.94,35.7 141.74,65.4 211.2,91.2 0.51,0 0.51,0 0.51,0 602.32,-60.4 1182.72,-194.8 1732.52,-393.6 4,-66.4 8.4,-140.3 -13.4,-185.4" /></g><g
         transform="scale(1.11726)"
         id="g30"><path
           id="path32"
           style="fill:#c4e230;fill-opacity:1;fill-rule:nonzero;stroke:none"
           d="m 6899.6,15601.3 c -27.5,-199.2 -8.33,-309.2 -253.14,-331.4 10.4,-42.6 -11.91,-113.1 3.12,-157.2 -425.87,169.1 -1369.39,92.3 -1340.86,725.1 256.24,170.2 523.36,324.2 799.84,462.2 123.44,-107.9 133.32,-301.9 268.15,-454.4 163.93,-184.1 147.35,-58.6 337.18,-7.8 74.71,20.2 185.19,82.5 251.58,-6.2 88.2,-118.8 -52.36,-135.4 -65.87,-230.3" /></g><g
         transform="scale(1.07421)"
         id="g34"><path
           id="path36"
           style="fill:#c4e230;fill-opacity:1;fill-rule:nonzero;stroke:none"
           d="m 8515.73,15221 c 208.66,-280.3 12.32,-403 -308.77,-389.6 13.27,-225.9 208.98,-163.5 329.06,-280.2 109.75,-106.7 61.93,-307.6 233.53,-346.6 568.63,-129.6 -230.16,746.8 243.56,652.2 161.76,-32.4 154.68,-312.6 355.42,-264.1 175.48,42.5 179.76,285 110.03,405.3 -83.87,144.7 -366.26,155.8 -406.61,318.4 -46.56,187.7 167,179.5 23.57,340.5 -58.42,65.5 -193.67,33.7 -260.88,123.7 -130.22,174.6 12.87,177 -198.11,286 -116.93,60.3 -274.91,-29.1 -258.86,187.8 -246.93,45.6 -834.08,-96.1 -594.52,-452.5 87.12,-129.5 298.31,-143.7 419.9,-233.5 120.45,-88.8 223.48,-227.7 312.68,-347.4" /></g><g
         transform="scale(1.1717)"
         id="g38"><path
           id="path40"
           style="fill:#c4e230;fill-opacity:1;fill-rule:nonzero;stroke:none"
           d="m 9058.5,16300 c -205.69,-59.8 -417.86,-104.9 -468.81,-147.9 -142.97,-120.7 -147.91,-286.4 -321.54,-395.7 -164.21,-103.4 -355.62,-172.6 -522.8,-275.5 320.52,-183 274.01,-360.6 -68.76,-291.3 -127.09,25.7 -246.32,15.8 -374.92,34.6 -110.27,15.9 -248.78,146.9 -361.03,186.5 -137.04,48.5 -274.54,57.9 -417.47,77.6 -165.18,22.8 -388.75,58.4 -340.26,220.6 879.89,380.4 1850.29,591.1 2869.7,591.1 h 5.89" /></g><g
         transform="scale(1.17127)"
         id="g42"><path
           id="path44"
           style="fill:#2ebacc;fill-opacity:1;fill-rule:nonzero;stroke:none"
           d="m 16300,9060.85 c 0,-116.71 -2.7,-233.42 -8.1,-348.77 -9.5,-202.43 -27.7,-403.49 -53.4,-601.91 -17.5,-130.88 -37.7,-260.4 -62,-388.64 v -0.68 C 15547.7,4360.05 12599.1,1817 9055.98,1817 c -2916.83,0 -5430.21,1723.26 -6577.91,4206.97 923.71,-427.82 1951.98,-666.02 3036.3,-666.02 503.35,0 995.23,51.31 1469.55,149.83 1017.5,209.09 1957.4,632.22 2769.76,1219.88 549.22,396.74 1040.52,868.37 1458.72,1400.78 429.8,546.5 782.1,1156.44 1041.2,1813 46.6,116.76 90.4,235.46 129.5,355.56 106,312.4 189.7,634.9 251.7,964.9 v 0.6 c 20.3,108.7 37.8,218 53.3,327.3 3.4,20.2 6.1,41.2 8.8,61.4 26.3,199 43.9,399.4 53.3,602.5 0,5.4 0.7,11.5 0.7,16.9 4.7,110 8.1,220.6 8.1,332 0,65.4 -1.4,131.5 -3.4,197 0,6.7 0,13.5 -0.6,20.2 -0.8,49.3 -2.8,97.2 -5.5,145.1 -46.5,951.4 -276.6,1854.8 -656.5,2675.3 944.6,-436.5 1779.3,-1070.8 2450.6,-1848.8 v -0.6 c 95.8,-111.4 188.3,-224.7 276.6,-341.5 41.2,-53.9 82.4,-108.6 121.5,-163.9 788.8,-1097.8 1278.6,-2424.3 1349.5,-3861.53 2.7,-54.64 4.7,-109.96 6.1,-165.29 2,-66.08 2.7,-131.57 2.7,-197.73" /></g><path
         id="path46"
         style="fill:#abda36;fill-opacity:1;fill-rule:nonzero;stroke:none"
         d="m 10938.2,6503.2 c -320.1,-115.4 -450.5,-15 -582.4,-377.7 -72,-197.6 -139.9,-355.7 -313.8,-482.1 -201.52,-147.8 -329.55,-357.2 -462.34,-564.3 -59.27,-92.5 -122.48,-184.1 -203.09,-259.2 -32.41,-30.8 -67.95,-58.5 -103.53,-86.2 -36.35,-29.2 -99.56,-94.8 -149.38,-94.8 22.15,-82.2 60.85,-177.8 -0.77,-253.7 -67.95,-83 -197.57,-69.5 -263.94,-154.1 -172.3,-219.7 225.2,-249.7 340.58,-282.1 173.11,-49 30.83,-213.4 -80.58,-228.4 3.13,-98 48.2,-196 14.2,-292.4 -44.25,-126.4 -180.97,-144.6 -190.46,-285.3 -8.69,-137.5 195.21,-379.3 273.47,-483.7 9.45,-11.8 -112.25,-111.4 -128.04,-119.3 -48.2,-22.1 -89.29,-21.3 -138.3,-1.6 -114.61,49.8 -196.8,192.8 -259.24,294 -164.35,261.6 -278.18,550.8 -378.55,842.5 -133.56,384.8 -150.92,780 -186.5,1181.5 -31.61,354.8 -24.5,678 22.15,1032.9 20.54,155.7 52.94,368.2 32.38,561.9 1191.76,244.9 2292.64,740.5 3244.14,1428.8 4.8,-29.2 6.4,-59.3 6.4,-92.5 -1.6,-231.5 -247.4,-396.7 -271.1,-646.4 -26.9,-297.2 117.7,-515.3 -221.3,-637.8" /><g
         transform="scale(1.17127)"
         id="g48"><path
           id="path50"
           style="fill:#abda36;fill-opacity:1;fill-rule:nonzero;stroke:none"
           d="m 16300,9060.85 c 0,-116.71 -2.7,-233.42 -8.1,-348.77 -4.7,-2.05 -9.5,-4.78 -14.2,-7.43 -118.1,-72.23 -195.7,-195.68 -330.7,-246.31 -614.6,-230.09 -555.2,871.11 -1126.8,957.51 -9.4,-217.29 162,-350.22 260.5,-526.35 106.7,-190.23 215.9,-377.89 312.4,-573.48 108.6,-218.66 166,-315.13 424.4,-273.3 98.6,16.91 305.7,126.87 421,67.45 -17.5,-130.88 -37.7,-260.4 -62,-388.64 v -0.68 c -197.7,-203.11 -553.3,-392.65 -665.3,-464.88 -140.4,-90.41 -338,-159.23 -351.6,-350.82 -14.2,-194.4 184.3,-333.39 184.3,-540.52 -1.4,-299.5 -202.5,-201.66 -321.8,-408.87 -119.5,-207.13 159.8,-203.03 101.8,-433.21 -182.2,-38.42 -217.9,-255.02 -328.6,-379.84 -70.9,-78.89 -191.6,-133.62 -246.3,-219.94 -52.6,-84.35 -0.6,-178.09 -78.9,-256.38 -105.3,-105.27 -186.3,-26.98 -302.3,-52 -315.1,-66.76 -289.4,-150.43 -442.6,116.12 -69.5,120.04 -249.7,256.38 -117.4,394.01 -340.7,322.47 -458.1,918.32 -277.3,1354.17 128.8,309.75 102.5,261.09 -58.8,555.3 -100.4,183.56 -16.9,361.66 -227.3,486.48 -179.5,106.63 -433.2,54.64 -629.5,13.49 -258.4,-53.28 -431.2,-77.61 -697.7,41.15 -209.9,93.15 -280.7,303.01 -429.2,460.18 -32.4,34.41 -57.3,65.49 -75.6,93.15 429.8,546.5 782.1,1156.44 1041.2,1813 65.4,4 130.2,6.72 182.8,19.56 143.1,35.06 187.7,70.8 293.5,169.3 89.1,83 122.2,239.6 287.5,138.3 -146.4,-391.28 563.4,-609.91 853.5,-587.64 80.3,319.84 286.1,90.43 533,81.64 189,-7.41 440.7,16.2 637,33.08 -59.4,120.08 -44.5,264.52 -87,388.62 -165.3,23 -253.7,-101.2 -415.7,-43.2 -108.6,38.5 -185.6,145.1 -264.5,222 -10.7,-32.3 -52,-66.1 -61.4,-112.7 -354.2,38.5 -190.9,242.3 -299.5,462.9 -60.7,123.5 -290.2,249.7 -419.1,294.9 -206.4,73.5 -407.5,10.8 -242.2,-212.6 120.1,-161.9 309.1,-159.2 393.4,-374.4 -201.1,28.3 -154.5,-249 -306.3,-285.5 76.9,233.5 -79,664 -361.7,730.8 -228.1,54.6 -371.8,-283.4 -473,-432.5 -37.8,-55.3 -77.6,-101.2 -120.8,-137 106,312.4 189.7,634.9 251.7,964.9 v 0.6 c 20.3,108.7 37.8,218 53.3,327.3 58.1,26.3 116.7,46.5 163.2,56 168.2,33.7 255.8,-19.6 407,75.6 66.1,42.5 82.3,113.3 161.9,149.1 66.8,30.4 156.5,-15.5 232.8,25 147.7,78.2 130.9,214.5 228.7,332.6 95.8,116 250.3,112 334,234.1 -149.1,74.2 -417.6,159.2 -507.4,283.4 31.1,128.2 270.5,607.2 68.1,670 -298.2,91.8 -261.8,-511.4 -279.3,-632.9 -25,-174.1 -78.2,-568.1 -261.1,-630.9 -133,-44.5 -218.6,60.8 -329.9,97.2 -50.7,16.2 -102.6,19.6 -155.2,21.6 4.7,110 8.1,220.6 8.1,332 0,65.4 -1.4,131.5 -3.4,197 0,6.7 0,13.5 -0.6,20.2 242.2,176.8 306.9,344.1 462.8,595.8 73.5,118.8 322.5,438.6 441.2,508.8 233.5,139 522.3,-94.5 752.4,-122.8 27.6,-4.1 75.5,-6.1 132.2,-10.2 v -0.6 c 95.8,-111.4 188.3,-224.7 276.6,-341.5 -149.7,-67.4 -501.3,-109.9 -620.7,-155.1 190.3,-127.6 410.3,-381.2 630.2,-185.6 60.7,54 68.8,116.7 112,176.8 788.8,-1097.8 1278.6,-2424.3 1349.5,-3861.53 -128.2,87.09 -193,267.9 -417,219.99 105.9,-93.8 186.2,-261.14 298.9,-336.7 50,-33.72 87.7,-45.85 124.2,-48.58 2,-66.08 2.7,-131.57 2.7,-197.73" /></g></g></g></svg>